<?xml version="1.0" encoding="utf-8"?>
<!-- Generator: Adobe Illustrator 18.0.0, SVG Export Plug-In . SVG Version: 6.00 Build 0)  -->
<!DOCTYPE svg PUBLIC "-//W3C//DTD SVG 1.1//EN" "http://www.w3.org/Graphics/SVG/1.1/DTD/svg11.dtd">
<svg version="1.1" id="Layer_1" xmlns="http://www.w3.org/2000/svg" xmlns:xlink="http://www.w3.org/1999/xlink" x="0px" y="0px"
	 viewBox="248.5 0 527.1 768" enable-background="new 248.5 0 527.1 768" xml:space="preserve">
<g id="Layer_1_1_">
	<rect x="248.5" y="0" fill="#C9C9C9" width="527.1" height="768"/>
</g>
<g id="Layer_2">
	<path fill="#B5B5B5" d="M443.9,381.8c-1.5,31.5,22.5,58.3,53.8,60.3l2.8-57.5l2.8-57.5C471.9,326,445.4,350.3,443.9,381.8z"/>
	<path fill="#B5B5B5" d="M504,392.1c0.1,0.3,0.1,0.6,0.1,0.9c5.6,31.3,35.6,52.2,66.9,46.6L560.7,382L504,392.1z"/>
	<path fill="#B5B5B5" d="M507.6,328.7c-0.3,0.1-0.6,0.2-0.9,0.3l17.7,54.9l55.8-18.1C570.3,335.6,537.9,318.9,507.6,328.7z"/>
	<path opacity="0.43" fill="#020202" enable-background="new    " d="M518.3,389.5L504,392c0.1,0.3,0.1,0.6,0.1,0.9
		c5.2,29.2,31.5,49.3,60.4,47.4L518.3,389.5z"/>
	<path opacity="0.43" fill="#020202" enable-background="new    " d="M469.9,336.4c-14.8,9.7-25,26.2-25.9,45.4
		c-1.5,31.5,22.5,58.3,53.8,60.3l2.8-57.5l0.6-13.7L469.9,336.4z"/>
</g>
</svg>
