<?xml version="1.0" encoding="utf-8"?>
<!-- Generator: Adobe Illustrator 18.0.0, SVG Export Plug-In . SVG Version: 6.00 Build 0)  -->
<!DOCTYPE svg PUBLIC "-//W3C//DTD SVG 1.1//EN" "http://www.w3.org/Graphics/SVG/1.1/DTD/svg11.dtd">
<svg version="1.1" id="Layer_1" xmlns="http://www.w3.org/2000/svg" xmlns:xlink="http://www.w3.org/1999/xlink" x="0px" y="0px"
	 viewBox="0 0 1008 490" enable-background="new 0 0 1008 490" xml:space="preserve">
<rect x="0" y="0" fill="#C9C9C9" width="1008" height="490"/>
<g id="Layer_2">
	<path fill="#B5B5B5" d="M436.8,243.5c-1.5,31.1,22.2,57.6,53.2,59.6l2.7-56.8l2.7-56.8C464.4,188.4,438.2,212.4,436.8,243.5z"/>
	<path fill="#B5B5B5" d="M496.1,253.7c0.1,0.3,0.1,0.6,0.1,0.9c5.5,30.9,35.1,51.5,66.1,46l-10.2-56.9L496.1,253.7z"/>
	<path fill="#B5B5B5" d="M499.7,191.1c-0.3,0.1-0.5,0.2-0.9,0.3l17.5,54.2l55.1-17.8C561.6,197.9,529.6,181.4,499.7,191.1z"/>
	<path opacity="0.43" fill="#020202" enable-background="new    " d="M510.2,251.1l-14.1,2.5c0.1,0.3,0.1,0.6,0.1,0.9
		c5.1,28.8,31.1,48.7,59.7,46.9L510.2,251.1z"/>
	<path opacity="0.43" fill="#020202" enable-background="new    " d="M462.4,198.7c-14.6,9.6-24.7,25.9-25.6,44.8
		c-1.5,31.1,22.2,57.6,53.2,59.6l2.7-56.8l0.6-13.5L462.4,198.7z"/>
</g>
</svg>
