<?xml version="1.0" encoding="utf-8"?>
<!-- Generator: Adobe Illustrator 18.0.0, SVG Export Plug-In . SVG Version: 6.00 Build 0)  -->
<!DOCTYPE svg PUBLIC "-//W3C//DTD SVG 1.1//EN" "http://www.w3.org/Graphics/SVG/1.1/DTD/svg11.dtd">
<svg version="1.1" id="Layer_1" xmlns="http://www.w3.org/2000/svg" xmlns:xlink="http://www.w3.org/1999/xlink" x="0px" y="0px"
	 viewBox="0 0 841.9 841.9" enable-background="new 0 0 841.9 841.9" xml:space="preserve">
<linearGradient id="SVGID_1_" gradientUnits="userSpaceOnUse" x1="-77.0383" y1="708.4558" x2="918.9283" y2="133.4342">
	<stop  offset="0" style="stop-color:#FFFFFF"/>
	<stop  offset="1" style="stop-color:#F7F7F7"/>
</linearGradient>
<rect display="none" fill="url(#SVGID_1_)" width="841.9" height="841.9"/>
<path fill="#2597D6" d="M16,407.9C7,595.1,150,754.4,336.4,766.4l16.5-342.3l16.5-342.3C182.6,75.9,25,220.7,16,407.9z"/>
<path fill="#2597D6" d="M373.4,469c0.3,1.9,0.5,3.7,0.8,5.6C407.5,660.9,585.6,785,772,751.8l-61.2-343L373.4,469z"/>
<path fill="#2597D6" d="M394.6,92.2c-1.8,0.6-3.5,1.3-5.3,1.9l105.4,326l331.5-107.2C768,132.8,574.7,34,394.6,92.2z"/>
<path fill="#2597D6" d="M394.6,92.2c-1.8,0.6-3.5,1.3-5.3,1.9l105.4,326l331.5-107.2C768,132.8,574.7,34,394.6,92.2z"/>
<path opacity="0.43" fill="#020202" d="M458,453.9L373.4,469c0.3,1.9,0.5,3.7,0.8,5.6c30.9,173.4,187.2,292.9,359,281.9L458,453.9z"
	/>
<path opacity="0.43" fill="#020202" d="M170.4,137.9C82,196,21.5,294.1,16,407.9C7,595.1,150,754.4,336.4,766.4l16.5-342.3l3.9-81.5
	L170.4,137.9z"/>
</svg>
